<?xml version="1.0" standalone="no"?>
<!DOCTYPE svg PUBLIC "-//W3C//DTD SVG 20010904//EN"
 "http://www.w3.org/TR/2001/REC-SVG-20010904/DTD/svg10.dtd">
<svg version="1.0" xmlns="http://www.w3.org/2000/svg"
 width="1693.000000pt" height="349.000000pt" viewBox="0 0 1693.000000 349.000000"
 preserveAspectRatio="xMidYMid meet">
<metadata>
Created by potrace 1.16, written by Peter Selinger 2001-2019
</metadata>
<g transform="translate(0.000000,349.000000) scale(0.100000,-0.100000)"
fill="#000000" stroke="none">
<path d="M14163 3472 c-351 -105 -608 -630 -674 -1382 -7 -84 -10 -232 -7
-393 l6 -257 -52 6 c-163 18 -236 43 -486 165 -113 54 -230 104 -260 111 -140
29 -252 -40 -294 -181 -32 -110 -16 -203 47 -270 35 -36 132 -87 186 -97 29
-6 37 -14 62 -68 37 -81 54 -204 39 -288 -22 -120 -83 -209 -177 -254 -46 -23
-69 -28 -132 -27 -94 0 -151 24 -214 92 -53 56 -77 101 -106 194 -41 136 -44
91 53 1012 121 1142 123 1392 13 1537 -46 60 -104 90 -186 96 -174 12 -293
-85 -335 -270 -35 -153 -67 -740 -71 -1313 l-4 -440 -91 2 c-170 4 -254 30
-530 164 -113 54 -230 104 -260 111 -140 29 -252 -40 -294 -181 -32 -110 -16
-203 47 -270 35 -36 132 -87 186 -97 29 -6 37 -14 62 -68 37 -81 54 -204 39
-288 -22 -120 -83 -209 -177 -254 -46 -23 -69 -28 -132 -27 -94 0 -151 24
-214 92 -53 56 -77 101 -106 194 -41 136 -44 91 53 1012 121 1142 123 1392 13
1537 -46 60 -104 90 -186 96 -174 12 -293 -85 -335 -270 -35 -153 -67 -740
-71 -1313 l-4 -440 -91 2 c-170 4 -254 30 -530 164 -113 54 -230 104 -260 111
-140 29 -252 -40 -294 -181 -32 -110 -16 -203 47 -270 35 -36 132 -87 186 -97
29 -6 37 -14 62 -68 37 -81 54 -204 39 -288 -22 -120 -83 -209 -177 -254 -46
-23 -69 -28 -132 -27 -94 0 -151 24 -214 92 -53 56 -77 101 -106 194 -41 136
-44 91 53 1012 121 1142 123 1392 13 1537 -46 60 -104 90 -186 96 -174 12
-293 -85 -335 -270 -17 -72 -41 -369 -55 -663 -35 -718 -18 -1369 44 -1699 8
-43 15 -79 15 -81 0 -1 -17 -7 -37 -13 -21 -7 -74 -39 -118 -73 -166 -127
-253 -170 -347 -171 -118 0 -138 80 -97 394 42 327 11 520 -111 683 -174 234
-585 231 -835 -6 -40 -39 -92 -95 -116 -125 l-42 -55 -22 55 c-35 86 -69 137
-127 193 -96 90 -234 141 -353 129 -133 -13 -297 -132 -437 -318 -20 -26 -39
-44 -42 -41 -3 4 -6 31 -6 62 0 31 -7 80 -14 110 -33 122 -100 172 -229 172
-115 0 -184 -38 -228 -124 -24 -45 -41 -178 -34 -262 2 -33 7 -186 10 -340 l6
-280 -43 -22 c-24 -11 -86 -53 -138 -92 -153 -115 -239 -147 -339 -129 -77 14
-121 74 -142 194 -13 74 -9 326 11 673 15 258 0 316 -99 386 -40 28 -48 30
-139 30 -88 0 -101 -2 -139 -27 -81 -53 -116 -169 -132 -438 -6 -91 -15 -244
-21 -340 -12 -198 -25 -268 -63 -333 -43 -73 -112 -112 -224 -128 -77 -11
-189 3 -242 31 -62 31 -118 103 -144 184 -33 106 -30 303 7 536 39 239 29 328
-46 397 -62 58 -198 84 -265 50 -118 -61 -196 -275 -210 -572 -5 -118 9 -279
33 -385 5 -22 -7 -35 -115 -120 -133 -104 -201 -144 -274 -160 -131 -28 -197
2 -197 88 0 49 40 172 118 367 l76 190 0 100 c-1 113 -15 161 -69 241 -42 61
-106 109 -168 126 -36 9 -73 9 -174 0 -160 -15 -327 -15 -373 1 -43 15 -56 41
-68 142 -15 113 -44 185 -103 249 -70 76 -133 106 -223 105 -82 -1 -118 -12
-178 -55 -93 -67 -143 -201 -136 -369 3 -90 7 -109 36 -167 18 -37 51 -83 74
-103 l41 -38 -12 -61 c-38 -183 -132 -408 -275 -656 -81 -139 -106 -205 -106
-273 0 -104 71 -201 166 -227 53 -15 149 -8 191 13 64 34 154 150 227 296 79
156 185 446 236 646 13 50 26 93 29 97 4 4 27 1 53 -6 25 -8 95 -22 154 -30
113 -17 143 -30 170 -71 24 -36 13 -106 -32 -213 -20 -48 -47 -113 -61 -145
-61 -145 -80 -323 -47 -438 59 -206 288 -315 592 -281 223 25 409 105 580 250
l63 53 74 -69 c121 -113 243 -163 444 -183 241 -23 431 47 602 223 38 39 71
69 72 67 2 -2 18 -28 36 -56 65 -104 198 -202 323 -240 69 -20 206 -19 288 2
76 19 203 77 282 128 31 19 59 33 62 30 3 -4 6 -17 6 -30 0 -57 58 -119 134
-143 55 -18 171 -8 221 18 22 11 54 34 70 52 l30 31 0 142 c0 78 -3 212 -5
297 l-5 155 44 85 c59 116 120 207 181 268 113 114 237 135 289 48 52 -86 61
-190 48 -523 -10 -241 -9 -267 8 -329 20 -75 68 -138 122 -161 39 -16 140 -17
180 -2 111 42 165 189 193 524 15 185 35 278 80 370 68 142 174 225 288 225
59 0 83 -9 124 -48 72 -66 89 -208 68 -539 -11 -164 -11 -216 -1 -273 31 -174
131 -280 316 -336 96 -30 284 -25 400 10 167 50 337 144 442 244 l52 50 36
-48 c130 -177 318 -270 547 -270 244 0 436 79 609 250 80 80 103 109 137 180
23 47 48 114 56 150 29 122 16 307 -29 421 l-14 37 67 -23 c84 -28 180 -44
302 -48 l95 -4 7 -29 c4 -16 17 -83 29 -149 27 -153 76 -301 136 -418 65 -126
184 -248 293 -300 172 -82 394 -89 600 -21 125 42 215 99 321 204 80 80 103
109 137 180 23 47 48 114 56 150 29 122 16 307 -29 421 l-14 37 67 -23 c84
-28 180 -44 302 -48 l95 -4 7 -29 c4 -16 17 -83 29 -149 27 -153 76 -301 136
-418 65 -126 184 -248 293 -300 172 -82 394 -89 600 -21 125 42 215 99 321
204 80 80 103 109 137 180 23 47 48 114 56 150 29 122 16 307 -29 422 l-14 36
57 -20 c74 -26 191 -48 255 -48 94 0 125 -9 131 -39 4 -14 21 -73 38 -129 l32
-104 -95 -91 c-51 -51 -128 -122 -170 -159 -118 -103 -135 -164 -78 -276 51
-103 148 -165 220 -141 55 19 157 90 257 179 l93 83 52 -54 c228 -239 486
-302 802 -198 114 38 218 96 316 175 l77 62 43 -45 c54 -55 182 -140 267 -177
34 -15 106 -39 160 -53 86 -23 116 -26 272 -26 186 -1 276 10 432 48 205 51
372 139 489 255 187 187 176 391 -23 440 -71 18 -132 -4 -258 -95 -197 -142
-381 -215 -539 -215 -68 0 -176 19 -203 36 -5 4 19 24 54 47 35 22 108 86 163
141 81 82 109 118 148 192 62 120 87 219 87 347 0 173 -47 296 -155 404 -143
143 -386 197 -618 137 -256 -65 -442 -277 -519 -591 -22 -93 -30 -273 -16
-383 l7 -55 -132 -88 c-171 -113 -236 -140 -342 -141 -68 -1 -88 3 -137 27
-56 27 -129 97 -157 149 -13 25 -10 32 55 135 98 156 239 440 321 648 277 702
343 1288 190 1695 -59 157 -163 278 -275 320 -80 31 -198 35 -279 12z m112
-615 c51 -51 69 -142 67 -352 -1 -265 -34 -489 -109 -735 -33 -109 -104 -294
-139 -362 l-16 -31 -15 32 c-9 17 -30 43 -47 56 -67 53 -63 35 -71 259 -18
514 50 929 182 1105 24 31 71 60 102 61 7 0 28 -15 46 -33z m1425 -1587 c16
-11 36 -41 46 -66 15 -41 16 -53 5 -108 -27 -129 -124 -265 -251 -352 -81 -55
-79 -55 -107 36 -54 181 25 423 162 494 43 22 111 20 145 -4z"/>
</g>
</svg>
